<svg version="1.1" xmlns="http://www.w3.org/2000/svg" width="48" height="48"><defs><linearGradient x1="12.94323" y1="13.95561" x2="54.72492" y2="55.76969" gradientUnits="userSpaceOnUse" id="color-1"><stop offset="0.19" stop-color="#000000" stop-opacity="0.57"></stop><stop offset="1" stop-color="#000000" stop-opacity="0"></stop></linearGradient><linearGradient x1="33.625" y1="14.375" x2="43" y2="23.75" gradientUnits="userSpaceOnUse" id="color-2"><stop offset="0" stop-color="#000000" stop-opacity="0.57"></stop><stop offset="1" stop-color="#000000" stop-opacity="0"></stop></linearGradient><filter id="dropshadow-base"><feColorMatrix type="matrix" values="0 0 0 0 0  0 0 0 0 0  0 0 0 0 0  0 0 0 .8 0"></feColorMatrix> <feOffset dx="0" dy="1"></feOffset> <feGaussianBlur stdDeviation="1"></feGaussianBlur> <feComposite in="SourceGraphic"></feComposite></filter><filter id="dropshadow-banner" x="-10%" y="-10%" width="120%" height="130%"><feColorMatrix type="matrix" values="0 0 0 0 0  0 0 0 0 0  0 0 0 0 0  0 0 0 .4 0"></feColorMatrix> <feOffset dx="0" dy="1"></feOffset> <feGaussianBlur stdDeviation="0.5"></feGaussianBlur> <feComposite in="SourceGraphic"></feComposite></filter></defs><g fill="none" fill-rule="nonzero" stroke="none" stroke-width="none" stroke-linecap="butt" stroke-linejoin="miter" stroke-miterlimit="10" stroke-dasharray="" stroke-dashoffset="0" font-family="none" font-weight="none" font-size="none" text-anchor="none" style="mix-blend-mode: normal"><path d="M7,43c-1.10457,0 -2,-0.89543 -2,-2v-34c0,-1.10457 0.89543,-2 2,-2l26,0l10,10v26c0,1.10457 -0.89543,2 -2,2z" id="base 1 9 1 2" fill="#ffba94" stroke-width="1"></path><path d="M29.58844,16.81144l13.41156,13.41156v10.777c0,1.10457 -0.89543,2 -2,2l-12.83414,0l-12.36001,-12.36001c-1.7685,-1.7685 -2.86261,-4.2134 -2.86261,-6.91428c0,-5.39588 4.36698,-9.77011 9.75391,-9.77011c2.69054,0 5.12664,1.09118 6.8913,2.85583z" fill="url(#color-1)" stroke-width="1"></path><path d="M12.94324,23.72571c0,-5.39588 4.36697,-9.77011 9.75391,-9.77011c5.38693,0 9.75391,4.37423 9.75391,9.77011c0,5.39588 -4.36697,9.77011 -9.75391,9.77011c-5.38693,0 -9.75391,-4.37423 -9.75391,-9.77011z" id="path4574 1 1" fill="none" stroke-width="0"></path><g id="svg8 2"><g id="layer2 1" fill="#bdbdbd" stroke-width="0.26458"><path d="M12.94324,23.72571c0,-5.39588 4.36697,-9.77011 9.75391,-9.77011c5.38693,0 9.75391,4.37423 9.75391,9.77011c0,5.39588 -4.36697,9.77011 -9.75391,9.77011c-5.38693,0 -9.75391,-4.37423 -9.75391,-9.77011z" id="path4574 1"></path></g><g id="layer1 1" fill="#ffffff" stroke-width="0.16607"><path d="M16.4002,29.59082l-0.2394,-0.2394v-5.54085v-5.54084l0.2394,-0.2394c0.17386,-0.17386 0.31827,-0.23941 0.52749,-0.23941c0.32864,0 0.24577,-0.0629 3.69461,2.80416l2.20925,1.83658l2.6693,-2.22758c1.46812,-1.22517 2.74732,-2.26933 2.84269,-2.32037c0.31343,-0.16775 0.66947,-0.11147 0.92755,0.14661l0.2394,0.2394v5.49989v5.49989l-0.2394,0.2394c-0.33041,0.33041 -0.74689,0.33041 -1.0773,0l-0.2394,-0.2394v-4.46984c0,-2.45842 -0.01947,-4.46985 -0.04328,-4.46985c-0.02381,0 -1.0281,0.8215 -2.23177,1.82556c-1.20367,1.00405 -2.27962,1.88857 -2.39099,1.96559c-0.47224,0.32659 -0.5853,0.26401 -2.74278,-1.51843c-1.10409,-0.91216 -2.183,-1.79682 -2.39758,-1.96591l-0.39014,-0.30744l-0.04095,4.55289l-0.04095,4.55289l-0.22979,0.19762c-0.32864,0.28263 -0.73789,0.26628 -1.04596,-0.04177z" id="path32 1"></path></g></g><path d="M2,24c0,-12.15026 9.84974,-22 22,-22c12.15026,0 22,9.84974 22,22c0,12.15026 -9.84974,22 -22,22c-12.15026,0 -22,-9.84974 -22,-22z" id="base 1 5 1" fill="none" stroke-width="1"></path><path d="M2,24c0,-12.15026 9.84974,-22 22,-22c12.15026,0 22,9.84974 22,22c0,12.15026 -9.84974,22 -22,22c-12.15026,0 -22,-9.84974 -22,-22z" id="base 1 1 1" fill="none" stroke-width="1"></path><g fill="#000000" stroke-width="1" font-family="Roboto, sans-serif" font-weight="normal" font-size="14" text-anchor="start"></g><rect x="2" y="2" width="44" height="22" fill="none" stroke-width="1"></rect><path d="M2,24v-22h44v22z" fill="none" stroke-width="1"></path><path d="M2,24v-22h44v22z" fill="none" stroke-width="1"></path><path d="M2,24v-22h44v22z" fill="none" stroke-width="1"></path><path d="M2,24v-22h44v22z" fill="none" stroke-width="1"></path><g id="svg8 1 1" fill="#000000" stroke-width="1" font-family="Roboto, sans-serif" font-weight="normal" font-size="14" text-anchor="start"><g id="layer2 1 1"></g><g id="layer1 1 1"></g></g><rect x="2" y="2" width="44" height="22" fill="none" stroke-width="1"></rect><path d="M2,24v-22h44v22z" fill="none" stroke-width="1"></path><path d="M2,24v-22h44v22z" fill="none" stroke-width="1"></path><path d="M2,24v-22h44v22z" fill="none" stroke-width="1"></path><path d="M2,24v-22h44v22z" fill="none" stroke-width="1"></path><path d="M33.625,14.375l9.375,0.625v8.75z" fill="url(#color-2)" stroke-width="1"></path><path d="M33,5l10,10h-8c-1,0 -2,-1 -2,-2z" fill="#ffd8b2" stroke-width="1"></path></g></svg>